<?xml version="1.0" standalone="no"?>
<!DOCTYPE svg PUBLIC "-//W3C//DTD SVG 20010904//EN"
 "http://www.w3.org/TR/2001/REC-SVG-20010904/DTD/svg10.dtd">
<svg version="1.0" xmlns="http://www.w3.org/2000/svg"
 width="260.000000pt" height="260.000000pt" viewBox="0 0 260.000000 260.000000"
 preserveAspectRatio="xMidYMid meet">
<metadata>
Created by potrace 1.14, written by Peter Selinger 2001-2017
</metadata>
<g transform="translate(0.000000,260.000000) scale(0.100000,-0.100000)"
fill="#000000" stroke="none">
<path d="M0 1300 l0 -1300 1300 0 1300 0 0 1300 0 1300 -1300 0 -1300 0 0
-1300z m981 861 c86 -72 110 -99 127 -140 38 -86 36 -90 -43 -122 -50 -21 -85
-44 -124 -84 l-56 -55 25 -16 c47 -31 200 -195 207 -222 6 -23 -2 -34 -73 -99
-43 -40 -87 -76 -97 -79 -32 -10 -120 59 -185 143 -33 43 -71 88 -84 101 l-25
23 -43 -36 c-50 -42 -131 -85 -158 -85 -45 0 -192 161 -192 209 0 22 39 68
198 233 108 112 216 222 240 243 39 35 125 74 162 74 8 1 63 -39 121 -88z
m829 58 c25 -6 98 -21 162 -34 182 -37 205 -52 259 -157 81 -159 97 -258 59
-365 -40 -116 -91 -136 -324 -131 -153 3 -155 3 -183 31 -16 15 -32 27 -35 27
-4 0 -10 -15 -13 -32 -13 -56 -55 -128 -102 -175 -77 -75 -84 -76 -198 -42
-102 30 -155 55 -162 76 -3 7 10 27 27 45 18 18 47 63 66 101 19 37 49 91 67
120 18 28 48 90 67 137 31 81 130 286 181 377 26 45 24 45 129 22z m285 -1048
c22 -10 59 -36 81 -57 37 -34 43 -46 49 -97 4 -32 5 -92 3 -133 -5 -68 -8 -78
-37 -108 -18 -19 -55 -46 -83 -61 -47 -25 -56 -27 -146 -23 -80 3 -108 9 -160
32 -71 33 -126 88 -141 141 -21 77 14 199 72 253 70 65 272 95 362 53z m-1299
-76 c75 -37 144 -101 144 -134 0 -52 -53 -136 -109 -175 -31 -22 -48 -26 -107
-26 -111 0 -161 20 -227 89 -63 65 -71 96 -43 162 18 43 36 59 111 98 76 39
128 36 231 -14z m876 -542 c40 -23 46 -56 18 -100 -20 -33 -20 -33 -102 -33
-46 0 -124 -5 -174 -10 -336 -35 -412 -33 -461 16 -21 21 -24 31 -18 62 4 20
14 50 22 66 l15 29 334 -5 c304 -5 336 -8 366 -25z"/>
<path d="M1900 1958 c0 -7 -14 -40 -30 -73 -16 -33 -30 -66 -30 -73 0 -31 109
-43 147 -17 26 18 37 64 28 112 -5 27 -13 38 -40 49 -42 17 -75 18 -75 2z"/>
</g>
</svg>
